<svg width="100" height="100" viewBox="0 0 100 100" fill="none" xmlns="http://www.w3.org/2000/svg">
<path d="M77.0833 43.75C77.0833 49.3738 72.4571 54.1667 66.6667 54.1667C60.8762 54.1667 56.25 49.3738 56.25 43.75C56.25 38.1262 60.8762 33.3333 66.6667 33.3333C72.4571 33.3333 77.0833 38.1262 77.0833 43.75Z" stroke="#F97316" stroke-width="8" stroke-linecap="round" stroke-linejoin="round"/>
<path d="M43.75 66.6667C43.75 72.2905 39.1238 77.0833 33.3333 77.0833C27.5429 77.0833 22.9167 72.2905 22.9167 66.6667C22.9167 61.0429 27.5429 56.25 33.3333 56.25C39.1238 56.25 43.75 61.0429 43.75 66.6667Z" stroke="#F97316" stroke-width="8" stroke-linecap="round" stroke-linejoin="round"/>
<path d="M66.6667 54.1667L50 22.9167L33.3333 56.25" stroke="#F97316" stroke-width="8" stroke-linecap="round" stroke-linejoin="round"/>
<path d="M56.25 43.75H41.6667" stroke="#F97316" stroke-width="8" stroke-linecap="round" stroke-linejoin="round"/>
</svg>
